<?xml version="1.0" standalone="no"?>
<!DOCTYPE svg PUBLIC "-//W3C//DTD SVG 20010904//EN"
 "http://www.w3.org/TR/2001/REC-SVG-20010904/DTD/svg10.dtd">
<svg version="1.0" xmlns="http://www.w3.org/2000/svg"
 width="100.000000pt" height="100.000000pt" viewBox="0 0 100.000000 100.000000"
 preserveAspectRatio="xMidYMid meet">
<metadata>
Created by potrace 1.11, written by Peter Selinger 2001-2013
</metadata>
<g transform="translate(0.000000,100.000000) scale(0.100000,-0.100000)"
fill="#000000" stroke="none">
<path d="M0 764 l0 -237 37 -46 c143 -179 363 -344 581 -436 119 -50 154 -54
187 -21 26 26 26 26 23 178 l-3 153 -25 -5 c-14 -3 -77 -5 -140 -5 -109 1
-119 3 -181 33 -82 39 -119 80 -171 188 -40 82 -88 140 -172 207 -52 41 -48
65 10 68 47 3 91 -10 139 -38 40 -25 43 -29 26 -38 -17 -9 -18 -12 -6 -29 16
-21 39 -12 30 11 -11 29 25 -8 66 -68 40 -59 116 -129 139 -129 9 0 7 -5 -6
-14 -14 -11 -16 -18 -8 -26 15 -15 60 -9 57 8 -2 8 10 11 37 9 40 -2 50 -10
30 -22 -13 -8 6 -35 25 -35 20 0 43 32 28 37 -22 8 -14 23 10 23 13 0 44 7 68
15 43 15 46 19 63 75 10 33 31 78 48 101 16 22 28 42 26 44 -2 1 -21 5 -43 9
-22 3 -51 8 -65 11 -14 3 -37 7 -52 10 -103 19 -269 106 -332 174 l-30 31
-198 0 -198 0 0 -236z"/>
<path d="M226 811 c-7 -10 22 -37 30 -28 9 8 -3 37 -15 37 -5 0 -12 -4 -15 -9z"/>
<path d="M346 681 c-10 -15 20 -45 38 -38 14 5 15 11 6 27 -11 20 -35 27 -44
11z"/>
<path d="M420 577 c0 -19 21 -37 43 -37 13 0 17 5 13 16 -3 9 -6 20 -6 25 0 5
-11 9 -25 9 -14 0 -25 -6 -25 -13z"/>
<path d="M781 511 c-21 -13 -6 -38 21 -36 29 2 40 45 11 45 -10 0 -24 -4 -32
-9z"/>
</g>
</svg>
