<?xml version="1.0" standalone="no"?>
<!DOCTYPE svg PUBLIC "-//W3C//DTD SVG 20010904//EN"
 "http://www.w3.org/TR/2001/REC-SVG-20010904/DTD/svg10.dtd">
<svg version="1.0" xmlns="http://www.w3.org/2000/svg"
 width="548.000000pt" height="548.000000pt" viewBox="0 0 548.000000 548.000000"
 preserveAspectRatio="xMidYMid meet">
<metadata>
Created by potrace 1.11, written by Peter Selinger 2001-2013
</metadata>
<g transform="translate(0.000000,548.000000) scale(0.100000,-0.100000)"
fill="#000000" stroke="none">
<path d="M2707 5474 c-1 -1 -56 -4 -122 -8 -66 -4 -133 -9 -150 -11 -16 -2
-46 -6 -65 -9 -158 -20 -347 -64 -508 -120 -839 -289 -1480 -953 -1736 -1799
-20 -64 -38 -127 -40 -139 -3 -13 -8 -34 -11 -48 -3 -14 -8 -38 -10 -55 -3
-16 -8 -37 -10 -45 -2 -8 -7 -37 -11 -65 -3 -27 -7 -52 -9 -55 -19 -31 -28
-530 -12 -665 13 -110 23 -180 32 -225 3 -14 10 -47 15 -75 6 -27 16 -72 24
-100 8 -27 17 -62 20 -77 l6 -26 92 2 c136 4 244 -16 423 -78 213 -73 268 -85
373 -81 128 5 249 38 372 100 326 165 618 466 817 841 l56 106 -1 142 c-1 77
-3 157 -6 176 -3 19 -8 60 -12 90 -20 170 -110 440 -208 626 -45 84 -70 116
-147 193 -164 162 -256 247 -414 381 -27 24 -56 54 -63 67 -21 38 -7 87 34
121 90 74 298 173 455 216 52 14 96 31 98 38 9 28 101 102 166 133 182 89 440
81 654 -20 135 -64 265 -175 321 -273 17 -29 44 -49 127 -94 l104 -58 33 25
c234 179 684 -61 788 -420 35 -120 13 -247 -58 -325 l-34 -38 62 -113 63 -114
55 27 c139 68 305 30 439 -102 122 -119 188 -251 237 -475 3 -11 6 -67 8 -125
5 -138 -19 -257 -73 -365 -68 -137 -163 -214 -293 -239 l-58 -11 0 -95 0 -95
58 -24 c85 -37 180 -137 230 -243 60 -127 86 -252 84 -411 -2 -176 -28 -288
-117 -512 l-8 -20 19 20 c38 38 171 211 221 285 208 310 356 673 419 1030 3
14 9 50 14 80 18 101 25 213 25 420 0 253 -10 364 -51 554 -9 39 -17 79 -19
88 -9 43 -49 176 -76 255 -167 482 -475 916 -877 1235 -266 212 -483 331 -832
458 -57 21 -201 60 -290 79 -85 18 -131 25 -275 46 -52 8 -342 23 -348 19z"/>
<path d="M2308 4945 c-127 -31 -214 -98 -244 -189 -55 -166 109 -378 364 -470
94 -33 139 -41 257 -41 144 0 228 29 305 104 48 47 59 65 69 109 14 65 7 112
-25 178 -62 131 -200 234 -389 294 -88 28 -253 35 -337 15z m222 -159 c133
-14 280 -116 300 -209 31 -145 -183 -212 -388 -121 -182 81 -239 246 -106 309
35 16 119 34 139 29 6 -2 30 -5 55 -8z"/>
<path d="M1822 4675 c-94 -34 -235 -105 -238 -121 -1 -5 44 -49 99 -98 169
-147 456 -434 577 -576 30 -35 65 -76 78 -90 41 -44 188 -242 245 -331 97
-149 170 -305 208 -444 38 -135 31 -362 -16 -573 -67 -306 -203 -607 -413
-917 -152 -224 -275 -370 -511 -605 -224 -223 -422 -396 -533 -466 -21 -13
-38 -26 -38 -28 0 -2 19 -15 43 -29 323 -189 654 -311 977 -362 169 -26 266
-32 475 -30 242 2 370 16 565 60 3 1 21 5 40 9 228 50 515 166 745 299 74 42
215 135 215 141 0 2 -28 2 -62 1 -111 -3 -266 54 -357 131 -78 67 -160 188
-186 276 -25 86 -2 76 65 -28 23 -35 44 -64 46 -64 1 0 -3 15 -11 34 -44 104
-65 351 -43 501 17 114 84 321 124 383 8 12 11 22 6 22 -15 0 -58 -44 -87 -88
-36 -54 -50 -44 -26 19 45 118 155 238 272 296 35 17 89 47 120 65 52 32 100
50 159 62 21 4 25 11 24 33 -1 15 -3 55 -3 88 l-1 60 -48 12 c-140 33 -268
146 -303 266 -8 28 -5 27 44 -22 54 -53 108 -91 130 -91 8 1 6 5 -4 13 -20 15
-90 119 -116 172 -23 45 -61 158 -69 201 -3 16 -9 47 -14 69 -5 22 -8 91 -7
153 1 61 1 112 0 112 -2 0 -16 -29 -32 -63 -19 -44 -30 -88 -34 -138 -8 -99
-14 -130 -43 -220 -69 -215 -214 -346 -403 -364 -31 -3 -79 -8 -108 -11 -70
-8 -143 9 -232 54 -79 39 -172 122 -205 182 -20 35 -19 35 35 -14 50 -46 98
-73 159 -91 19 -6 9 9 -45 67 -115 124 -192 274 -234 456 -24 101 -34 277 -22
355 10 63 0 50 -42 -52 -36 -87 -50 -92 -49 -17 3 141 148 375 314 507 97 76
238 102 358 66 170 -50 344 -227 431 -435 34 -83 79 -247 80 -296 l0 -31 13
35 c22 58 76 160 123 233 l44 68 -32 67 c-18 37 -48 92 -66 124 l-33 56 -47
-14 c-52 -16 -141 -18 -163 -4 -21 13 -14 16 68 33 88 18 100 27 44 28 -23 1
-45 2 -49 3 -5 1 -24 6 -43 10 -170 39 -392 235 -451 399 -7 20 -16 37 -19 37
-3 0 -5 -35 -3 -77 2 -66 1 -74 -10 -58 -42 62 -54 195 -26 275 10 30 19 61
19 70 0 15 -65 62 -85 61 -5 0 -13 -19 -17 -43 -9 -50 -48 -133 -80 -168 -13
-14 -40 -48 -60 -76 -95 -130 -212 -198 -335 -196 -66 2 -72 14 -15 28 62 16
126 47 167 82 l30 25 -29 -7 c-99 -25 -252 -30 -341 -12 -156 32 -310 107
-417 204 -21 19 -38 32 -38 29 0 -2 11 -30 25 -61 14 -31 25 -66 25 -78 0 -21
0 -21 -21 -2 -32 29 -67 95 -99 185 -16 45 -28 84 -28 88 1 3 -8 32 -20 63
-11 31 -23 77 -25 102 -2 25 -5 47 -8 50 -2 2 -46 -11 -97 -29z m1433 -2600
c162 -23 299 -124 388 -286 26 -48 80 -189 72 -189 -2 0 0 -11 5 -25 5 -14 13
-53 17 -87 41 -364 -85 -757 -327 -1012 -98 -104 -240 -197 -335 -221 -16 -4
-39 -9 -50 -12 -11 -2 -49 -6 -85 -8 -77 -5 -229 31 -300 73 -94 54 -241 221
-301 341 -33 66 -79 244 -78 298 1 36 3 34 47 -57 26 -53 55 -107 66 -120 l18
-25 -7 35 c-11 58 -14 270 -4 339 11 77 14 93 28 151 7 25 14 55 17 68 7 33
60 164 90 225 33 66 127 209 148 227 10 7 26 27 38 43 l21 29 -22 -12 c-12 -6
-47 -34 -78 -61 -30 -28 -57 -48 -60 -45 -13 13 44 100 110 167 90 93 193 146
322 166 17 3 32 7 34 9 5 5 167 -3 226 -11z"/>
<path d="M3073 1900 c-210 -74 -384 -279 -484 -566 -29 -84 -31 -94 -50 -204
-12 -70 -14 -229 -4 -295 44 -286 207 -461 412 -442 122 11 224 65 339 181
190 191 303 480 302 769 -1 218 -65 394 -183 500 -76 68 -228 94 -332 57z
m154 -346 c58 -36 100 -99 123 -183 11 -44 15 -155 5 -201 -2 -14 -7 -38 -11
-55 -28 -135 -154 -302 -259 -343 -175 -69 -321 82 -311 322 9 216 143 430
297 475 46 13 123 5 156 -15z"/>
<path d="M3504 4530 c-58 -25 -93 -75 -97 -137 -16 -230 254 -506 494 -505
163 2 226 143 144 327 -98 221 -382 387 -541 315z m300 -125 c94 -45 173 -165
161 -247 -4 -29 -16 -53 -36 -73 -26 -27 -35 -30 -88 -29 -96 1 -192 70 -239
172 -70 154 43 252 202 177z"/>
<path d="M3259 3779 c-171 -26 -286 -211 -293 -469 -9 -306 137 -608 348 -722
55 -29 69 -33 146 -33 76 0 90 3 127 27 85 55 141 141 178 273 25 89 26 276 1
394 -42 195 -155 378 -289 469 -41 28 -127 66 -127 57 0 -2 -10 -1 -22 3 -13
5 -44 5 -69 1z m155 -284 c43 -18 93 -65 129 -122 117 -185 83 -468 -63 -527
-104 -42 -220 30 -285 178 -32 73 -37 96 -40 193 -4 130 41 234 120 273 48 24
90 25 139 5z"/>
<path d="M4337 3516 c-82 -30 -139 -96 -182 -209 -30 -81 -39 -138 -38 -247 4
-443 358 -774 584 -547 87 88 131 228 125 402 -4 121 -7 140 -37 235 -48 152
-159 301 -262 349 -59 29 -140 36 -190 17z m272 -296 c130 -124 147 -377 32
-485 -28 -26 -40 -30 -90 -30 -48 0 -64 5 -95 29 -121 92 -167 312 -94 451 53
100 162 116 247 35z"/>
<path d="M4337 1965 c-195 -69 -364 -340 -402 -644 -35 -282 57 -550 218 -633
63 -32 157 -30 231 6 297 145 461 683 320 1046 -75 190 -219 278 -367 225z
m164 -291 c136 -70 169 -342 66 -537 -95 -181 -254 -221 -354 -89 -42 55 -62
125 -64 221 -4 270 188 491 352 405z"/>
</g>
</svg>
